<svg width="1130" height="682" viewBox="0 0 1130 682" fill="none" xmlns="http://www.w3.org/2000/svg">
<rect y="256.678" width="25" height="25" transform="rotate(-45 0 256.678)" fill="#4DCEE6"/>
<circle cx="692.5" cy="52.5" r="12.5" fill="#FFCC00"/>
<circle cx="865.5" cy="622.5" r="12.5" fill="#4DCEE6"/>
<path d="M540.543 654.599L551.471 663.311L548.872 675.538L535.346 679.053L524.418 670.34L527.017 658.113L540.543 654.599Z" fill="#510FA8"/>
<path d="M540.543 654.599L551.471 663.311L548.872 675.538L535.346 679.053L524.418 670.34L527.017 658.113L540.543 654.599Z" fill="#510FA8"/>
<path d="M540.543 654.599L551.471 663.311L548.872 675.538L535.346 679.053L524.418 670.34L527.017 658.113L540.543 654.599Z" fill="#510FA8"/>
<path d="M1117.42 494.599L1128.35 503.311L1125.75 515.538L1112.23 519.053L1101.3 510.34L1103.9 498.113L1117.42 494.599Z" fill="#510FA8"/>
<path d="M1117.42 494.599L1128.35 503.311L1125.75 515.538L1112.23 519.053L1101.3 510.34L1103.9 498.113L1117.42 494.599Z" fill="#510FA8"/>
<path d="M1117.42 494.599L1128.35 503.311L1125.75 515.538L1112.23 519.053L1101.3 510.34L1103.9 498.113L1117.42 494.599Z" fill="#FEBAC7"/>
<path d="M454.504 2.5989L465.431 11.3112L462.832 23.5381L449.306 27.0526L438.379 18.3403L440.977 6.11342L454.504 2.5989Z" fill="#510FA8"/>
<path d="M454.504 2.5989L465.431 11.3112L462.832 23.5381L449.306 27.0526L438.379 18.3403L440.977 6.11342L454.504 2.5989Z" fill="#510FA8"/>
<path d="M454.504 2.5989L465.431 11.3112L462.832 23.5381L449.306 27.0526L438.379 18.3403L440.977 6.11342L454.504 2.5989Z" fill="#5F29F5"/>
</svg>
